<?xml version="1.0" encoding="UTF-8"?>
<svg id="Layer_1" xmlns="http://www.w3.org/2000/svg" xmlns:xlink="http://www.w3.org/1999/xlink" version="1.1" viewBox="0 0 1024 1024">
  <!-- Generator: Adobe Illustrator 30.1.0, SVG Export Plug-In . SVG Version: 2.1.1 Build 136)  -->
  <defs>
    <style>
      .st0 {
        filter: url(#drop-shadow-1);
      }

      .st1 {
        fill: #d0bcff;
      }

      .st2 {
        fill: #381e72;
      }
    </style>
    <filter id="drop-shadow-1" x="74" y="182" width="890" height="674" filterUnits="userSpaceOnUse">
      <feOffset dx="7" dy="7"/>
      <feGaussianBlur result="blur" stdDeviation="10"/>
      <feFlood flood-color="#000" flood-opacity=".75"/>
      <feComposite in2="blur" operator="in"/>
      <feComposite in="SourceGraphic"/>
    </filter>
  </defs>
  <rect class="st2" width="1024" height="1024"/>
  <g class="st0">
    <path class="st1" d="M746.96,386.92c-29.08-105.97-126.32-181.13-237.75-181.13s-208.98,75.41-237.89,181.64c-97.57,9.69-174.23,92.56-174.23,192.41,0,106.63,86.75,193.38,193.38,193.38,12.29,0,22.25-9.96,22.25-22.25s-9.96-22.25-22.25-22.25c-82.09,0-148.88-66.79-148.88-148.88s66.27-148.23,147.72-148.84c10.57-.08,19.63-7.59,21.66-17.95,18.59-94.3,101.94-162.75,198.2-162.75s179.66,68.47,198.21,162.82c2.1,10.65,11.43,18.32,22.4,17.95l1.64-.05c.69-.02,1.37-.05,2.06-.05,82.09,0,148.88,66.79,148.88,148.88s-66.79,148.88-148.88,148.88c-25.3,0-50.32-6.49-72.34-18.76-9.54-5.32-21.52-2.94-28.3,5.64-2.17,2.73-53.72,66.95-113.27,57.07-15.21-2.52-26.77-9.99-34.33-22.22-10.72-17.3-6.13-51.67,23.47-81.27,1.01-1.01,2-1.88,2.97-2.67,2.1-.94,4.08-2.17,5.85-3.72,7.21-3.24,14.19-1.54,23.34,1.42,3.54,1.14,6.89,2.23,10.57,2.7,12.21,1.53,23.33-7.12,24.85-19.3.08-.63.12-1.25.14-1.87,1.37-7.27,1.47-18.32-3.85-33.25-4.6-12.89,14.29-22.96,14.29-22.96,0,0,.6-10.21-15.02-13.79,0,0,20.12-7.14,22.16-15.82,2.05-8.68-7.14-18.38-7.14-27.06s27.17-8.69,29.21-20.44-9.06-25.11-17.47-38.9c-9.98-16.33-23.48-37.78-23.99-59.72-.51-21.95-11.99-64.06-28.84-84.99-16.46-20.45-26.36-31.38-44.42-38.07-8.13-4.87-18.73-4.6-26.71,1.51-10.46,8-12.46,22.96-4.47,33.43,20.59,26.95,55.1,83.86,54.82,162.3-.2,55-14.55,103.15-42.65,143.12-.85,1.2-1.55,2.48-2.16,3.77-1,.9-1.99,1.85-2.97,2.84-17.82,17.82-31.19,40.1-37.64,62.7-7.78,27.28-5.08,52.68,7.8,73.48,14.43,23.29,36.86,38.05,64.91,42.7,6.79,1.12,13.44,1.64,19.95,1.64,56.67,0,102.31-39.31,123.43-61.33,24.42,10.73,50.99,16.34,77.79,16.34,106.63,0,193.38-86.75,193.38-193.38s-79.56-186-179.95-192.93l.02-.02Z"/>
    <path class="st1" d="M426.72,357.35c-8.74-8.65-22.84-8.55-31.48.2-8.63,8.74-8.55,22.84.2,31.48,12.07,11.91,51.22,55.91,48.53,122.07-3,74.01-56.12,116.59-66.73,124.38-9.91,7.27-12.05,21.19-4.78,31.1,4.36,5.95,11.11,9.09,17.97,9.09,4.56,0,9.18-1.4,13.15-4.31,13.5-9.9,81.06-64.09,84.87-158.47,3.42-84.39-46.39-140.4-61.73-155.55h-.01Z"/>
    <path class="st1" d="M409.13,531.04c11.15-61.91-31.47-104.89-36.36-109.6-8.88-8.51-22.96-8.22-31.47.65-8.51,8.88-8.21,22.96.65,31.47,1.25,1.2,30.53,29.82,23.36,69.58-5.71,31.66-30.77,48.55-35.73,51.62-10.45,6.45-13.7,20.17-7.25,30.64,4.2,6.82,11.5,10.56,18.95,10.56,3.99,0,8.03-1.07,11.67-3.32,10.95-6.76,47.33-32.61,56.15-81.61h.01Z"/>
    <circle class="st1" cx="646.53" cy="593.32" r="23.35"/>
    <circle class="st1" cx="718.22" cy="593.32" r="23.35"/>
    <circle class="st1" cx="789.92" cy="593.32" r="23.35"/>
  </g>
</svg>